# xmcd
#
# Track frame offsets: 
#        150
#        11087
#        22602
#        34225
#        46802
#        58092
#        69427
#        79750
#        92077
#        101870
#        111405
#        122952
#        134452
#        145517
#        155622
#        166812
#        179567
#        189192
#        200472
#        212457
#        223710
#        237430
#        247622
#        261850
#
# Disc length: 3660 seconds
#
# Revision: 3
# Processed by: cddbd v1.5.2PL0 Copyright (c) Steve Scherf et al.
# Submitted via: ExactAudioCopy v1.1
#
DISCID=4d0e4a18
DTITLE=The Maddox Brothers and Rose - The Most Colorful Hillbilly Band I
DTITLE=n America - Disc 1
DYEAR=1998
DGENRE=Country
TTITLE0=I'll Make Sweet Love To You (mono)
TTITLE1=Take These Shackles From My Heart (mono)
TTITLE2=Cocquita Of Laredo (mono)
TTITLE3=Wedding Blues (mono)
TTITLE4=Empty Mansions (mono)
TTITLE5=Little Willie Waltz (mono)
TTITLE6=The Hiccough Song (mono)
TTITLE7=Green Grow The Lilacs (mono)
TTITLE8=No Help Wanted (mono)
TTITLE9=Hearts And Flowers (mono)
TTITLE10=Will There Be Any Stars In My Crown (mono)
TTITLE11=Just Over The Stars (mono)
TTITLE12=Rose Maddox - I'm A Little Red Caboose (On The Choo Choo Trai
TTITLE12=n Of Love)v
TTITLE13=Rose Maddox - These Wasted Years (mono)
TTITLE14=Rose Maddox - The Nightingale Song (mono)
TTITLE15=Rose Maddox - I'd Rather Die Young (Than Grow Old Without You
TTITLE15=) (mono)
TTITLE16=Kiss Me Quick And Go (mono)
TTITLE17=On Mexico's Beautiful Shores (mono)
TTITLE18=I Won't Stand In Your Way (mono)
TTITLE19=A Wooin' We Will Go (mono)
TTITLE20=Rose Maddox - The Life That You've Led (mono)
TTITLE21=Rose Maddox - Kiss Me Like Crazy (mono)
TTITLE22=Rose Maddox - Just One More Time (mono)
TTITLE23=Rose Maddox - Second Choice (mono)
EXTD=ID3G: 2
EXTT0=
EXTT1=
EXTT2=
EXTT3=
EXTT4=
EXTT5=
EXTT6=
EXTT7=
EXTT8=
EXTT9=
EXTT10=
EXTT11=
EXTT12=
EXTT13=
EXTT14=
EXTT15=
EXTT16=
EXTT17=
EXTT18=
EXTT19=
EXTT20=
EXTT21=
EXTT22=
EXTT23=
PLAYORDER=
